REM DIRINDEX 1\5,1\2\6,1\2\7,1\3\8,1\3\9,1\4\10,1\4\11,1\4\12
REM DIRNAME cjc026,folder01,folder02,folder03,folder04,folder05,folder06,folder07,folder08,folder09,folder10,folder11
TITLE ""
FILE "EJE_DB3000_5th_6C_39.mp3" MP3
  TRACK 01 AUDIO
    TITLE "0:"
    INDEX 01 00:00:00
  TRACK 02 AUDIO
    TITLE "10:cjc026_11658"
    INDEX 01 00:00:08
  TRACK 03 AUDIO
    TITLE "0:"
    INDEX 01 00:01:24
  TRACK 04 AUDIO
    TITLE "11:cjc026_11659"
    INDEX 01 00:01:60
  TRACK 05 AUDIO
    TITLE "0:"
    INDEX 01 00:03:28
  TRACK 06 AUDIO
    TITLE "12:cjc026_11660"
    INDEX 01 00:03:66
  TRACK 07 AUDIO
    TITLE "0:"
    INDEX 01 00:05:08
  TRACK 08 AUDIO
    TITLE "10:cjc026_11661"
    INDEX 01 00:05:43
  TRACK 09 AUDIO
    TITLE "0:"
    INDEX 01 00:06:54
  TRACK 10 AUDIO
    TITLE "11:cjc026_11662"
    INDEX 01 00:07:15
  TRACK 11 AUDIO
    TITLE "0:"
    INDEX 01 00:08:58
  TRACK 12 AUDIO
    TITLE "12:cjc026_11663"
    INDEX 01 00:09:18
  TRACK 13 AUDIO
    TITLE "0:"
    INDEX 01 00:10:33
  TRACK 14 AUDIO
    TITLE "10:cjc026_11664"
    INDEX 01 00:10:68
  TRACK 15 AUDIO
    TITLE "0:"
    INDEX 01 00:12:04
  TRACK 16 AUDIO
    TITLE "11:cjc026_11665"
    INDEX 01 00:12:36
  TRACK 17 AUDIO
    TITLE "0:"
    INDEX 01 00:14:05
  TRACK 18 AUDIO
    TITLE "12:cjc026_11666"
    INDEX 01 00:14:43
  TRACK 19 AUDIO
    TITLE "0:"
    INDEX 01 00:15:52
  TRACK 20 AUDIO
    TITLE "10:cjc026_11667"
    INDEX 01 00:16:12
  TRACK 21 AUDIO
    TITLE "0:"
    INDEX 01 00:17:29
  TRACK 22 AUDIO
    TITLE "11:cjc026_11668"
    INDEX 01 00:17:64
  TRACK 23 AUDIO
    TITLE "0:"
    INDEX 01 00:18:70
  TRACK 24 AUDIO
    TITLE "12:cjc026_11669"
    INDEX 01 00:19:33
  TRACK 25 AUDIO
    TITLE "0:"
    INDEX 01 00:20:47
  TRACK 26 AUDIO
    TITLE "10:cjc026_11670"
    INDEX 01 00:21:09
  TRACK 27 AUDIO
    TITLE "0:"
    INDEX 01 00:22:29
  TRACK 28 AUDIO
    TITLE "11:cjc026_11671"
    INDEX 01 00:22:64
  TRACK 29 AUDIO
    TITLE "0:"
    INDEX 01 00:24:09
  TRACK 30 AUDIO
    TITLE "12:cjc026_11672"
    INDEX 01 00:24:44
  TRACK 31 AUDIO
    TITLE "0:"
    INDEX 01 00:25:63
  TRACK 32 AUDIO
    TITLE "10:cjc026_11673"
    INDEX 01 00:26:23
  TRACK 33 AUDIO
    TITLE "0:"
    INDEX 01 00:27:43
  TRACK 34 AUDIO
    TITLE "11:cjc026_11674"
    INDEX 01 00:28:06
  TRACK 35 AUDIO
    TITLE "0:"
    INDEX 01 00:29:36
  TRACK 36 AUDIO
    TITLE "12:cjc026_11675"
    INDEX 01 00:29:71
  TRACK 37 AUDIO
    TITLE "0:"
    INDEX 01 00:31:15
  TRACK 38 AUDIO
    TITLE "10:cjc026_11676"
    INDEX 01 00:31:51
  TRACK 39 AUDIO
    TITLE "0:"
    INDEX 01 00:32:70
  TRACK 40 AUDIO
    TITLE "11:cjc026_11677"
    INDEX 01 00:33:30
  TRACK 41 AUDIO
    TITLE "0:"
    INDEX 01 00:34:44
  TRACK 42 AUDIO
    TITLE "12:cjc026_11678"
    INDEX 01 00:35:02
  TRACK 43 AUDIO
    TITLE "0:"
    INDEX 01 00:36:21
  TRACK 44 AUDIO
    TITLE "10:cjc026_11679"
    INDEX 01 00:36:56
  TRACK 45 AUDIO
    TITLE "0:"
    INDEX 01 00:38:11
  TRACK 46 AUDIO
    TITLE "11:cjc026_11680"
    INDEX 01 00:38:44
  TRACK 47 AUDIO
    TITLE "0:"
    INDEX 01 00:40:05
  TRACK 48 AUDIO
    TITLE "12:cjc026_11681"
    INDEX 01 00:40:40
  TRACK 49 AUDIO
    TITLE "0:"
    INDEX 01 00:41:70
  TRACK 50 AUDIO
    TITLE "10:cjc026_11682"
    INDEX 01 00:42:30
  TRACK 51 AUDIO
    TITLE "0:"
    INDEX 01 00:43:52
  TRACK 52 AUDIO
    TITLE "11:cjc026_11683"
    INDEX 01 00:44:12
  TRACK 53 AUDIO
    TITLE "0:"
    INDEX 01 00:45:45
  TRACK 54 AUDIO
    TITLE "12:cjc026_11684"
    INDEX 01 00:46:06
  TRACK 55 AUDIO
    TITLE "0:"
    INDEX 01 00:47:25
  TRACK 56 AUDIO
    TITLE "10:cjc026_11685"
    INDEX 01 00:47:60
  TRACK 57 AUDIO
    TITLE "0:"
    INDEX 01 00:49:07
  TRACK 58 AUDIO
    TITLE "11:cjc026_11686"
    INDEX 01 00:49:42
  TRACK 59 AUDIO
    TITLE "0:"
    INDEX 01 00:51:06
  TRACK 60 AUDIO
    TITLE "12:cjc026_11687"
    INDEX 01 00:51:41
  TRACK 61 AUDIO
    TITLE "0:"
    INDEX 01 00:52:63
  TRACK 62 AUDIO
    TITLE "10:cjc026_11688"
    INDEX 01 00:53:23
  TRACK 63 AUDIO
    TITLE "0:"
    INDEX 01 00:54:35
  TRACK 64 AUDIO
    TITLE "11:cjc026_11689"
    INDEX 01 00:54:67
  TRACK 65 AUDIO
    TITLE "0:"
    INDEX 01 00:56:39
  TRACK 66 AUDIO
    TITLE "12:cjc026_11690"
    INDEX 01 00:57:01
  TRACK 67 AUDIO
    TITLE "0:"
    INDEX 01 00:58:10
  TRACK 68 AUDIO
    TITLE "10:cjc026_11691"
    INDEX 01 00:58:48
  TRACK 69 AUDIO
    TITLE "0:"
    INDEX 01 00:59:73
  TRACK 70 AUDIO
    TITLE "11:cjc026_11692"
    INDEX 01 01:00:33
  TRACK 71 AUDIO
    TITLE "0:"
    INDEX 01 01:02:02
  TRACK 72 AUDIO
    TITLE "12:cjc026_11693"
    INDEX 01 01:02:37
  TRACK 73 AUDIO
    TITLE "0:"
    INDEX 01 01:03:64
  TRACK 74 AUDIO
    TITLE "10:cjc026_11694"
    INDEX 01 01:04:22
  TRACK 75 AUDIO
    TITLE "0:"
    INDEX 01 01:05:41
  TRACK 76 AUDIO
    TITLE "11:cjc026_11695"
    INDEX 01 01:06:01
  TRACK 77 AUDIO
    TITLE "0:"
    INDEX 01 01:07:42
  TRACK 78 AUDIO
    TITLE "12:cjc026_11696"
    INDEX 01 01:08:03
  TRACK 79 AUDIO
    TITLE "0:"
    INDEX 01 01:09:19
